<svg xmlns="http://www.w3.org/2000/svg" xmlns:xlink="http://www.w3.org/1999/xlink" width="25" zoomAndPan="magnify" viewBox="0 0 75 74.999997" height="25" preserveAspectRatio="xMidYMid meet" version="1.0"><defs><clipPath id="5c314baa93"><path d="M 10 0.800781 L 70.855469 0.800781 L 70.855469 74.300781 L 10 74.300781 Z M 10 0.800781 " clip-rule="nonzero"/></clipPath><clipPath id="3cb577282b"><path d="M 4.105469 48 L 34 48 L 34 63 L 4.105469 63 Z M 4.105469 48 " clip-rule="nonzero"/></clipPath></defs><g clip-path="url(#5c314baa93)"><path fill="#8c52ff" d="M 50.964844 74.28125 C 50.617188 74.28125 50.28125 74.214844 49.960938 74.082031 C 49.636719 73.945312 49.351562 73.757812 49.105469 73.507812 C 48.859375 73.261719 48.667969 72.976562 48.535156 72.652344 C 48.402344 72.332031 48.335938 71.996094 48.335938 71.644531 L 48.335938 58.015625 C 48.335938 57.917969 48.339844 57.820312 48.351562 57.722656 C 48.554688 55.929688 48.410156 54.164062 47.914062 52.429688 C 47.421875 50.695312 46.613281 49.121094 45.496094 47.707031 C 45.183594 47.3125 45 46.863281 44.945312 46.359375 C 44.890625 45.859375 44.976562 45.378906 45.195312 44.925781 C 45.414062 44.472656 45.738281 44.109375 46.167969 43.84375 C 46.59375 43.574219 47.058594 43.441406 47.5625 43.441406 C 56.183594 43.441406 65.347656 37.792969 65.347656 27.328125 C 65.347656 27.269531 65.347656 27.214844 65.347656 27.160156 C 65.464844 25.335938 65.269531 23.546875 64.773438 21.792969 C 64.273438 20.039062 63.492188 18.417969 62.4375 16.929688 C 61.96875 16.277344 61.828125 15.554688 62.019531 14.773438 C 62.65625 12.128906 62.8125 9.457031 62.492188 6.753906 C 61.035156 7.355469 58.847656 8.5 55.9375 10.6875 C 55.316406 11.152344 54.628906 11.3125 53.871094 11.167969 C 45.125 9.5 36.375 9.5 27.628906 11.167969 C 26.871094 11.3125 26.179688 11.152344 25.5625 10.6875 C 22.636719 8.472656 20.441406 7.332031 18.984375 6.738281 C 18.632812 9.433594 18.800781 12.097656 19.488281 14.730469 C 19.695312 15.527344 19.558594 16.261719 19.078125 16.929688 C 18.019531 18.414062 17.238281 20.035156 16.738281 21.789062 C 16.238281 23.546875 16.046875 25.335938 16.164062 27.15625 C 16.164062 27.214844 16.164062 27.273438 16.164062 27.328125 C 16.164062 37.796875 25.324219 43.445312 33.949219 43.445312 C 34.453125 43.445312 34.917969 43.578125 35.347656 43.847656 C 35.773438 44.117188 36.097656 44.476562 36.316406 44.933594 C 36.539062 45.390625 36.621094 45.871094 36.5625 46.371094 C 36.507812 46.875 36.320312 47.324219 36.007812 47.722656 C 34.882812 49.125 34.078125 50.691406 33.585938 52.421875 C 33.09375 54.160156 32.953125 55.921875 33.160156 57.714844 C 33.171875 57.8125 33.175781 57.914062 33.175781 58.011719 L 33.175781 71.644531 C 33.175781 71.996094 33.109375 72.332031 32.976562 72.652344 C 32.84375 72.976562 32.652344 73.261719 32.40625 73.507812 C 32.160156 73.757812 31.875 73.945312 31.554688 74.082031 C 31.230469 74.214844 30.894531 74.28125 30.546875 74.28125 C 30.199219 74.28125 29.863281 74.214844 29.539062 74.082031 C 29.21875 73.945312 28.933594 73.757812 28.6875 73.507812 C 28.441406 73.261719 28.25 72.976562 28.117188 72.652344 C 27.984375 72.332031 27.917969 71.996094 27.917969 71.644531 L 27.917969 58.152344 C 27.65625 55.726562 27.859375 53.335938 28.527344 50.984375 C 28.785156 50.074219 29.109375 49.183594 29.503906 48.320312 C 25.296875 47.609375 21.539062 45.902344 18.230469 43.203125 C 13.53125 39.273438 10.941406 33.671875 10.910156 27.414062 C 10.777344 25.207031 10.984375 23.035156 11.53125 20.894531 C 12.082031 18.753906 12.941406 16.75 14.121094 14.882812 C 13.265625 10.832031 13.355469 6.804688 14.394531 2.800781 C 14.46875 2.519531 14.585938 2.257812 14.746094 2.011719 C 14.90625 1.769531 15.101562 1.558594 15.332031 1.378906 C 15.5625 1.203125 15.816406 1.066406 16.089844 0.972656 C 16.367188 0.878906 16.652344 0.832031 16.941406 0.832031 C 17.625 0.832031 21.238281 1.078125 27.789062 5.785156 C 36.433594 4.269531 45.082031 4.269531 53.726562 5.785156 C 60.277344 1.078125 63.894531 0.832031 64.574219 0.832031 C 64.867188 0.832031 65.15625 0.878906 65.433594 0.976562 C 65.710938 1.070312 65.96875 1.210938 66.199219 1.394531 C 66.429688 1.574219 66.625 1.789062 66.785156 2.039062 C 66.945312 2.285156 67.0625 2.554688 67.128906 2.839844 C 68.097656 6.828125 68.183594 10.835938 67.394531 14.863281 C 68.570312 16.734375 69.4375 18.742188 69.984375 20.886719 C 70.535156 23.027344 70.746094 25.203125 70.613281 27.414062 C 70.589844 33.671875 67.984375 39.273438 63.289062 43.203125 C 59.976562 45.902344 56.214844 47.609375 52.003906 48.324219 C 53.429688 51.453125 53.964844 54.730469 53.605469 58.152344 L 53.605469 71.644531 C 53.605469 71.996094 53.539062 72.332031 53.402344 72.65625 C 53.269531 72.980469 53.078125 73.265625 52.832031 73.511719 C 52.582031 73.757812 52.296875 73.949219 51.976562 74.082031 C 51.652344 74.214844 51.316406 74.28125 50.964844 74.28125 Z M 50.964844 74.28125 " fill-opacity="1" fill-rule="nonzero"/></g><g clip-path="url(#3cb577282b)"><path fill="#8c52ff" d="M 22.847656 62.542969 C 17.027344 62.542969 13.589844 59.1875 11.058594 56.722656 C 9.21875 54.929688 8.019531 53.824219 6.734375 53.824219 C 6.386719 53.824219 6.050781 53.757812 5.726562 53.625 C 5.40625 53.488281 5.121094 53.300781 4.875 53.050781 C 4.628906 52.804688 4.4375 52.519531 4.304688 52.195312 C 4.171875 51.875 4.105469 51.539062 4.105469 51.1875 C 4.105469 50.839844 4.171875 50.503906 4.304688 50.179688 C 4.4375 49.859375 4.628906 49.574219 4.875 49.324219 C 5.121094 49.078125 5.40625 48.886719 5.726562 48.753906 C 6.050781 48.621094 6.386719 48.554688 6.734375 48.554688 C 10.222656 48.554688 12.617188 50.886719 14.722656 52.941406 C 18.210938 56.339844 21.222656 59.265625 29.484375 55.601562 C 29.804688 55.453125 30.140625 55.375 30.492188 55.359375 C 30.84375 55.347656 31.183594 55.40625 31.511719 55.53125 C 31.839844 55.652344 32.132812 55.835938 32.390625 56.078125 C 32.644531 56.320312 32.84375 56.605469 32.988281 56.925781 C 33.128906 57.246094 33.203125 57.585938 33.210938 57.9375 C 33.21875 58.289062 33.160156 58.628906 33.03125 58.957031 C 32.902344 59.285156 32.714844 59.578125 32.46875 59.828125 C 32.226562 60.082031 31.941406 60.277344 31.617188 60.417969 C 28.195312 61.941406 25.308594 62.542969 22.847656 62.542969 Z M 22.847656 62.542969 " fill-opacity="1" fill-rule="nonzero"/></g></svg>