<svg xmlns="http://www.w3.org/2000/svg" xmlns:xlink="http://www.w3.org/1999/xlink" width="25" zoomAndPan="magnify" viewBox="0 0 75 74.999997" height="25" preserveAspectRatio="xMidYMid meet" version="1.0"><defs><clipPath id="ab9f053cc3"><path d="M 1.300781 1.300781 L 74.050781 1.300781 L 74.050781 74.050781 L 1.300781 74.050781 Z M 1.300781 1.300781 " clip-rule="nonzero"/></clipPath></defs><path fill="#8c52ff" d="M 37.675781 55.65625 C 27.761719 55.65625 19.695312 47.589844 19.695312 37.675781 C 19.695312 27.761719 27.761719 19.695312 37.675781 19.695312 C 47.589844 19.695312 55.65625 27.761719 55.65625 37.675781 C 55.65625 47.589844 47.589844 55.65625 37.675781 55.65625 Z M 37.675781 23 C 29.582031 23 23 29.585938 23 37.675781 C 23 45.765625 29.585938 52.347656 37.675781 52.347656 C 45.765625 52.347656 52.347656 45.765625 52.347656 37.675781 C 52.347656 29.585938 45.765625 23 37.675781 23 Z M 37.675781 23 " fill-opacity="1" fill-rule="nonzero"/><g clip-path="url(#ab9f053cc3)"><path fill="#8c52ff" d="M 49.457031 74.050781 L 25.894531 74.050781 C 12.332031 74.050781 1.300781 63.015625 1.300781 49.457031 L 1.300781 25.894531 C 1.300781 12.332031 12.332031 1.300781 25.894531 1.300781 L 49.457031 1.300781 C 63.015625 1.300781 74.050781 12.332031 74.050781 25.894531 L 74.050781 49.457031 C 74.050781 63.015625 63.015625 74.050781 49.457031 74.050781 Z M 25.894531 4.605469 C 14.15625 4.605469 4.605469 14.15625 4.605469 25.894531 L 4.605469 49.457031 C 4.605469 61.195312 14.15625 70.742188 25.894531 70.742188 L 49.457031 70.742188 C 61.195312 70.742188 70.742188 61.195312 70.742188 49.457031 L 70.742188 25.894531 C 70.742188 14.15625 61.195312 4.605469 49.457031 4.605469 Z M 25.894531 4.605469 " fill-opacity="1" fill-rule="nonzero"/></g><path fill="#8c52ff" d="M 57.308594 24.136719 C 53.949219 24.136719 51.210938 21.402344 51.210938 18.042969 C 51.210938 14.679688 53.949219 11.945312 57.308594 11.945312 C 60.671875 11.945312 63.40625 14.679688 63.40625 18.042969 C 63.40625 21.402344 60.671875 24.136719 57.308594 24.136719 Z M 57.308594 15.25 C 55.769531 15.25 54.519531 16.503906 54.519531 18.042969 C 54.519531 19.578125 55.769531 20.832031 57.308594 20.832031 C 58.847656 20.832031 60.101562 19.578125 60.101562 18.042969 C 60.101562 16.503906 58.847656 15.25 57.308594 15.25 Z M 57.308594 15.25 " fill-opacity="1" fill-rule="nonzero"/></svg>