<svg xmlns="http://www.w3.org/2000/svg" xmlns:xlink="http://www.w3.org/1999/xlink" width="25" zoomAndPan="magnify" viewBox="0 0 75 74.999997" height="25" preserveAspectRatio="xMidYMid meet" version="1.0"><path fill="#8c52ff" d="M 12 4.515625 C 9.46875 4.515625 7.253906 5.238281 5.632812 6.546875 C 4.007812 7.859375 3.019531 9.800781 3.019531 11.921875 C 3.019531 16.035156 6.703125 19.222656 11.574219 19.410156 C 11.714844 19.457031 11.855469 19.480469 12 19.480469 C 14.628906 19.480469 16.871094 18.710938 18.46875 17.347656 C 20.066406 15.980469 20.980469 14.015625 20.980469 11.921875 C 20.980469 11.894531 20.980469 11.867188 20.980469 11.839844 C 20.75 7.699219 17.0625 4.515625 12 4.515625 Z M 12 7.480469 C 15.914062 7.480469 17.84375 9.402344 18.007812 11.957031 C 18 13.207031 17.515625 14.269531 16.546875 15.09375 C 15.566406 15.929688 14.058594 16.515625 12 16.515625 C 8.097656 16.515625 5.984375 14.398438 5.984375 11.921875 C 5.984375 10.683594 6.492188 9.664062 7.496094 8.851562 C 8.496094 8.042969 10.03125 7.480469 12 7.480469 Z M 4.5 22.5 C 4.300781 22.5 4.109375 22.539062 3.925781 22.613281 C 3.742188 22.691406 3.578125 22.796875 3.4375 22.9375 C 3.296875 23.078125 3.191406 23.242188 3.113281 23.425781 C 3.039062 23.609375 3 23.800781 3 24 L 3 67.5 C 3 67.699219 3.039062 67.890625 3.113281 68.074219 C 3.191406 68.257812 3.296875 68.421875 3.4375 68.5625 C 3.578125 68.703125 3.742188 68.808594 3.925781 68.886719 C 4.109375 68.960938 4.300781 69 4.5 69 L 19.5 69 C 19.699219 69 19.890625 68.960938 20.074219 68.886719 C 20.257812 68.808594 20.421875 68.703125 20.5625 68.5625 C 20.703125 68.421875 20.808594 68.257812 20.886719 68.074219 C 20.960938 67.890625 21 67.699219 21 67.5 L 21 24 C 21 23.800781 20.960938 23.609375 20.886719 23.425781 C 20.808594 23.242188 20.703125 23.078125 20.5625 22.9375 C 20.421875 22.796875 20.257812 22.691406 20.074219 22.613281 C 19.890625 22.539062 19.699219 22.5 19.5 22.5 Z M 27 22.5 C 26.800781 22.5 26.609375 22.539062 26.425781 22.613281 C 26.242188 22.691406 26.078125 22.796875 25.9375 22.9375 C 25.796875 23.078125 25.691406 23.242188 25.613281 23.425781 C 25.539062 23.609375 25.5 23.800781 25.5 24 L 25.5 67.5 C 25.5 67.699219 25.539062 67.890625 25.613281 68.074219 C 25.691406 68.257812 25.796875 68.421875 25.9375 68.5625 C 26.078125 68.703125 26.242188 68.808594 26.425781 68.886719 C 26.609375 68.960938 26.800781 69 27 69 L 42 69 C 42.199219 69 42.390625 68.960938 42.574219 68.886719 C 42.757812 68.808594 42.921875 68.703125 43.0625 68.5625 C 43.203125 68.421875 43.308594 68.257812 43.386719 68.074219 C 43.460938 67.890625 43.5 67.699219 43.5 67.5 L 43.5 42.75 C 43.5 39.832031 45.832031 37.5 48.75 37.5 C 51.667969 37.5 54 39.832031 54 42.75 L 54 67.5 C 54 67.699219 54.039062 67.890625 54.113281 68.074219 C 54.191406 68.257812 54.296875 68.421875 54.4375 68.5625 C 54.578125 68.703125 54.742188 68.808594 54.925781 68.886719 C 55.109375 68.960938 55.300781 69 55.5 69 L 70.5 69 C 70.699219 69 70.890625 68.960938 71.074219 68.886719 C 71.257812 68.808594 71.421875 68.703125 71.5625 68.5625 C 71.703125 68.421875 71.808594 68.257812 71.886719 68.074219 C 71.960938 67.890625 72 67.699219 72 67.5 L 72 42 C 72 35.808594 70.183594 30.90625 67.117188 27.5625 C 64.050781 24.21875 59.773438 22.5 55.179688 22.5 C 49.324219 22.5 45.78125 24.640625 43.5 26.402344 L 43.5 24 C 43.5 23.800781 43.460938 23.609375 43.386719 23.425781 C 43.308594 23.242188 43.203125 23.078125 43.0625 22.9375 C 42.921875 22.796875 42.757812 22.691406 42.574219 22.613281 C 42.390625 22.539062 42.199219 22.5 42 22.5 Z M 6 25.5 L 18 25.5 L 18 66 L 6 66 Z M 28.5 25.5 L 40.5 25.5 L 40.5 29.457031 C 40.5 29.769531 40.589844 30.050781 40.765625 30.308594 C 40.941406 30.5625 41.171875 30.746094 41.464844 30.859375 C 41.753906 30.96875 42.050781 30.988281 42.351562 30.914062 C 42.652344 30.84375 42.910156 30.691406 43.117188 30.460938 C 43.117188 30.460938 47.566406 25.5 55.179688 25.5 C 59.039062 25.5 62.421875 26.882812 64.902344 29.589844 C 67.386719 32.296875 69 36.390625 69 42 L 69 66 L 57 66 L 57 42.75 C 57 42.535156 56.960938 42.332031 56.875 42.132812 C 56.542969 37.894531 53.070312 34.5 48.75 34.5 C 44.210938 34.5 40.5 38.210938 40.5 42.75 L 40.5 66 L 28.5 66 Z M 28.5 25.5 " fill-opacity="1" fill-rule="nonzero"/></svg>